<svg width="136" height="140" viewBox="0 0 136 140" fill="none" xmlns="http://www.w3.org/2000/svg">
<path d="M29.476 117.187L52.8603 106.928C54.1279 106.28 55.1594 104.185 55.8856 102.691C56.54 101.342 55.5623 99.7539 54.0894 99.7539H37.5513C37.5513 99.7539 31.5724 99.1553 26.9613 97.1288C24.2592 95.9422 23.3303 94.375 25.0188 91.9153C29.9584 84.7225 40.1687 67.7854 40.4997 50.2943C40.4997 50.2943 41.0668 23.3686 67.0325 23.1508C82.1798 23.2794 89.3339 32.399 92.6672 39.9777C94.525 44.2067 95.3231 48.8164 95.6207 53.4418C96.6985 70.1138 104.997 85.3631 108.864 91.8786C110.175 94.0889 109.541 97.0316 107.373 98.3599C103.817 100.536 99.4621 99.7539 99.4621 99.7539H82.8136C81.1868 99.7539 80.4683 102.08 81.7462 103.111C82.788 103.951 83.781 104.71 84.3173 105.009L103.768 117.051C106.575 118.618 108.815 120.944 110.34 123.69C98.6666 133.342 83.817 139.13 67.6381 139.13C50.769 139.13 35.3445 132.833 23.4612 122.427C25.0136 120.261 27.0382 118.434 29.476 117.187Z" fill="white"/>
<path d="M68 0C30.4435 0 0 31.1468 0 69.5652C0 90.6238 9.16075 109.483 23.6127 122.241C25.1472 120.159 27.1128 118.397 29.4786 117.187L52.8629 106.928C54.1306 106.28 55.1621 104.185 55.8883 102.691C56.5426 101.342 55.565 99.7539 54.0921 99.7539H37.554C37.554 99.7539 31.5751 99.1554 26.9639 97.1288C24.2619 95.9422 23.333 94.3751 25.0214 91.9153C29.9611 84.7226 40.1713 67.7854 40.5023 50.2943C40.5023 50.2943 41.0694 23.3687 67.0352 23.1508C82.1825 23.2794 89.3366 32.399 92.6699 39.9777C94.5277 44.2067 95.3257 48.8164 95.6234 53.4418C96.7011 70.1139 105 85.3631 108.867 91.8786C110.178 94.0889 109.544 97.0317 107.376 98.36C103.817 100.536 99.4622 99.7539 99.4622 99.7539H82.8137C81.1869 99.7539 80.4684 102.08 81.7463 103.111C82.7881 103.951 83.7811 104.71 84.3174 105.009L103.768 117.051C106.555 118.605 108.777 120.907 110.299 123.627C110.365 123.692 110.44 123.753 110.504 123.823C126.036 111.076 136 91.5216 136 69.5652C136 31.1468 105.557 0 68 0Z" fill="#C0C5D2"/>
</svg>
