<svg width="136" height="140" viewBox="0 0 136 140" fill="none" xmlns="http://www.w3.org/2000/svg">
<path d="M47.7616 109.278L27.4719 120.6C26.2812 121.264 25.2112 122.08 24.2156 122.97C36.045 133.174 51.3155 139.33 67.9999 139.33C84.5611 139.33 99.7341 133.266 111.53 123.201C110.442 122.261 109.262 121.416 107.953 120.749L86.2265 109.637C83.4193 108.201 81.6461 105.267 81.6461 102.056V93.3354C82.2568 92.624 82.9548 91.7105 83.7015 90.6315C86.6627 86.3526 88.9029 81.6458 90.4553 76.708C93.2421 75.8286 95.2949 73.1956 95.2949 70.0665V60.7578C95.2949 58.7103 94.4045 56.8806 93.0214 55.5995V42.1432C93.0214 42.1432 95.7234 21.2028 68.0025 21.2028C40.2815 21.2028 42.9836 42.1432 42.9836 42.1432V55.5995C41.5979 56.8806 40.7101 58.7103 40.7101 60.7578V70.0665C40.7101 72.5183 41.97 74.6762 43.856 75.9231C46.1296 86.0481 52.0828 93.3354 52.0828 93.3354V101.841C52.0802 104.938 50.4225 107.792 47.7616 109.278Z" fill="white"/>
<path d="M69.1623 0.209822C31.6135 -0.446454 0.651643 30.1623 0.0101327 68.5754C-0.354245 90.3559 9.13497 109.931 24.2438 122.949C25.2317 122.067 26.2915 121.259 27.4693 120.602L47.759 109.28C50.42 107.795 52.0777 104.941 52.0777 101.838V93.3328C52.0777 93.3328 46.1219 86.0455 43.8509 75.9205C41.9675 74.6735 40.705 72.5183 40.705 70.0639V60.7552C40.705 58.7077 41.5954 56.878 42.9785 55.5969V42.1406C42.9785 42.1406 40.2764 21.2002 67.9974 21.2002C95.7183 21.2002 93.0163 42.1406 93.0163 42.1406V55.5969C94.4019 56.878 95.2898 58.7077 95.2898 60.7552V70.0639C95.2898 73.193 93.2369 75.826 90.4502 76.7054C88.8978 81.6432 86.6576 86.35 83.6964 90.6289C82.9497 91.7079 82.2517 92.6214 81.641 93.3328V102.053C81.641 105.264 83.4141 108.201 86.2214 109.635L107.948 120.747C109.252 121.414 110.429 122.256 111.515 123.193C126.167 110.693 135.633 92.0019 135.985 70.9538C136.631 32.5406 106.714 0.866098 69.1623 0.209822Z" fill="#C0C5D2"/>
</svg>